<?xml version="1.0" encoding="utf-8"?><svg xml:space="preserve" viewBox="0 0 100 100" y="0" x="0" xmlns="http://www.w3.org/2000/svg" id="Layer_1" version="1.1" width="200px" height="200px" xmlns:xlink="http://www.w3.org/1999/xlink" style="width:100%;height:100%;background-size:initial;background-repeat-y:initial;background-repeat-x:initial;background-position-y:initial;background-position-x:initial;background-origin:initial;background-image:initial;background-color:rgb(255, 255, 255);background-clip:initial;background-attachment:initial;animation-play-state:paused" ><g class="ldl-scale" style="transform-origin:50% 50%;transform:rotate(0deg) scale(0.8, 0.8);animation-play-state:paused" ><path fill="#cc5960" d="M92.5 53.9L79.2 42.2 67.4 55.5l7.1-.4c-1.9 9.1-8.9 16.6-18 19.1-11 2.9-22.5-1.9-28.2-11.7l-9 5.2C25.8 78.8 37.6 85.4 50 85.4c3 0 6.1-.4 9.1-1.2 13.9-3.8 24.2-15.6 26-29.8l7.4-.5z" style="fill:rgb(204, 89, 96);animation-play-state:paused" ></path>
<path fill="#e17a5f" d="M40.8 15.8C27 19.6 16.7 31.4 14.9 45.6l-7.4.5 13.3 11.7 11.8-13.3-7.1.4c1.9-9.1 8.9-16.6 18-19.1 10.9-2.9 22.5 1.9 28.1 11.6l9-5.2c-8-13.7-24.3-20.5-39.8-16.4z" style="fill:rgb(225, 122, 95);animation-play-state:paused" ></path>
<metadata xmlns:d="https://loading.io/stock/" style="animation-play-state:paused" ><d:name style="animation-play-state:paused" >reload</d:name>
<d:tags style="animation-play-state:paused" >recycle,refresh,sync,download,update,fetch,reload,spinner</d:tags>
<d:license style="animation-play-state:paused" >by</d:license>
<d:slug style="animation-play-state:paused" >6ao3xm</d:slug></metadata></g><!-- generated by https://loading.io/ --></svg>